<svg aria-hidden="true" style="position: absolute; width: 0; height: 0; overflow: hidden;" version="1.1" xmlns="http://www.w3.org/2000/svg" xmlns:xlink="http://www.w3.org/1999/xlink">
<defs>
<symbol id="icon-heart" viewBox="0 0 35 32">
<path stroke-linejoin="round" stroke-linecap="round" stroke-miterlimit="4" stroke-width="3.2" d="M17.589 5.933c-2.932-3.428-7.822-4.35-11.496-1.211s-4.191 8.388-1.306 12.101c2.399 3.087 9.659 9.597 12.038 11.705 0.266 0.236 0.399 0.354 0.555 0.4 0.136 0.040 0.284 0.040 0.419 0 0.155-0.046 0.288-0.164 0.555-0.4 2.38-2.107 9.639-8.618 12.038-11.705 2.885-3.713 2.431-8.994-1.306-12.101s-8.564-2.217-11.496 1.211z"></path>
</symbol>
<symbol id="icon-shopping-cart" viewBox="0 0 32 32">
<path d="M0.72 0.26c-0.397 0.183-0.56 0.493-0.56 1.073 0 0.547 0.152 0.864 0.507 1.059 0.14 0.077 0.467 0.092 2.587 0.115l2.427 0.027 0.579 2.88 1.739 8.672c1.123 5.611 1.167 5.807 1.377 6.24 0.492 1.017 1.386 1.773 2.47 2.070l0.027 0.006c0.4 0.103 0.62 0.105 7.515 0.105s7.115-0.003 7.515-0.105c1.376-0.382 2.43-1.464 2.766-2.828l0.006-0.027c0.067-0.288 1.657-8.601 2.137-11.173 0.14-0.745 0.016-1.124-0.453-1.387l-0.237-0.133-22.133-0.053-0.593-2.945c-0.325-1.62-0.621-3.015-0.657-3.1-0.115-0.232-0.306-0.412-0.541-0.509l-0.007-0.003c-0.171-0.072-0.607-0.083-3.227-0.081-2.824 0.001-3.043 0.008-3.241 0.099zM29.189 9.213c0.036 0.063-1.819 9.719-1.917 9.984-0.12 0.323-0.444 0.659-0.78 0.809l-0.279 0.127h-13.653l-0.279-0.127c-0.351-0.169-0.624-0.451-0.776-0.799l-0.004-0.010c-0.085-0.227-2.008-9.735-2.008-9.929 0-0.091 0.471-0.095 9.837-0.095 5.409 0 9.847 0.019 9.859 0.040zM11.303 25.431c-1.145 0.299-1.979 1.404-1.967 2.607 0.013 1.276 0.984 2.391 2.251 2.585 0.871 0.133 1.659-0.125 2.284-0.752 0.432-0.432 0.664-0.88 0.752-1.457 0.021-0.124 0.032-0.267 0.032-0.413 0-1.467-1.188-2.657-2.655-2.66h-0c-0.191 0-0.504 0.041-0.697 0.091zM25.969 25.431c-1.145 0.299-1.979 1.404-1.967 2.607 0.013 1.276 0.984 2.391 2.251 2.585 0.871 0.133 1.659-0.125 2.284-0.752 0.432-0.432 0.664-0.88 0.752-1.457 0.021-0.124 0.032-0.267 0.032-0.413 0-1.467-1.188-2.657-2.655-2.66h-0c-0.191 0-0.504 0.041-0.697 0.091z"></path>
</symbol>
<symbol id="icon-youtube" viewBox="0 0 32 32">
<path d="M13.573 4.513c-0.499 0.009-1.71 0.042-2.693 0.073-3.992 0.126-6.012 0.328-6.975 0.696-1.259 0.481-2.337 1.635-2.698 2.886-0.195 0.676-0.508 3.083-0.623 4.792-0.080 1.183-0.080 4.341 0 5.493 0.148 2.125 0.461 4.328 0.706 4.972 0.45 1.179 1.499 2.191 2.708 2.611 0.882 0.306 2.632 0.491 6.056 0.641 2.067 0.090 9.832 0.090 11.894 0 3.464-0.152 5.167-0.333 6.058-0.642 1.16-0.403 2.168-1.377 2.65-2.561 0.284-0.696 0.602-2.844 0.761-5.128 0.079-1.137 0.078-4.301-0.001-5.467-0.116-1.694-0.429-4.096-0.622-4.765-0.36-1.246-1.44-2.405-2.686-2.882-0.893-0.341-2.733-0.52-6.587-0.644-1.765-0.056-6.525-0.102-7.947-0.076zM20.88 6.241c3.075 0.092 5.15 0.23 6.052 0.403 1.006 0.192 1.848 0.875 2.191 1.779 0.107 0.281 0.317 1.528 0.452 2.691 0.317 2.717 0.317 6.254-0.003 9.021-0.132 1.146-0.336 2.347-0.448 2.641-0.369 0.973-1.2 1.636-2.297 1.836-2.705 0.491-12.803 0.65-18.72 0.294-3.027-0.182-3.846-0.38-4.584-1.109-0.534-0.526-0.712-0.93-0.878-1.981-0.16-0.981-0.302-2.234-0.393-3.501l-0.008-0.147c-0.079-1.21-0.067-3.981 0.022-5.232 0.133-1.848 0.423-3.958 0.613-4.458 0.338-0.889 1.165-1.57 2.164-1.781 0.983-0.207 3.395-0.373 6.878-0.472 1.398-0.040 7.437-0.028 8.96 0.019zM12.541 10.588c-0.11 0.099-0.202 0.215-0.274 0.344l-0.003 0.007c-0.101 0.198-0.104 0.34-0.101 4.753 0.002 3.381 0.019 4.595 0.067 4.731 0.102 0.291 0.304 0.405 0.721 0.405h0.356l3.92-2.232c2.156-1.227 3.998-2.308 4.094-2.403 0.248-0.243 0.277-0.486 0.101-0.845-0.099-0.199-0.205-0.322-0.367-0.42 1.539 0.773 0.228 0.013-1.087-0.742l-2.926-1.549c-3.365-1.912-3.814-2.152-4.056-2.172-0.237-0.020-0.295-0.004-0.445 0.123zM16.432 14.224c1.937 1.102 2.488 1.438 2.435 1.485-0.079 0.072-4.973 2.851-5.021 2.851-0.018 0-0.033-1.296-0.033-2.88 0-2.040 0.017-2.88 0.058-2.88 0.032 0 1.184 0.641 2.561 1.424z"></path>
</symbol>
<symbol id="icon-star" viewBox="0 0 34 32">
<path d="M14.89 2.282c0.737-2.268 3.945-2.268 4.682 0l2.080 6.402c0.33 1.014 1.275 1.701 2.341 1.701h6.731c2.384 0 3.376 3.051 1.447 4.453l-5.446 3.957c-0.863 0.627-1.224 1.738-0.894 2.752l2.080 6.402c0.737 2.268-1.859 4.154-3.788 2.752l-5.446-3.957c-0.863-0.627-2.031-0.627-2.894 0l-5.446 3.957c-1.929 1.402-4.525-0.484-3.788-2.752l2.080-6.402c0.33-1.014-0.031-2.125-0.894-2.752l-5.446-3.957c-1.929-1.402-0.938-4.453 1.447-4.453h6.731c1.066 0 2.012-0.687 2.341-1.701l2.080-6.402z"></path>
</symbol>
<symbol id="icon-search" viewBox="0 0 32 32">
<path d="M28.947 27.054l-4.947-4.907c1.92-2.394 2.85-5.433 2.598-8.492s-1.666-5.905-3.951-7.953-5.269-3.143-8.337-3.059c-3.068 0.084-5.987 1.34-8.157 3.51s-3.426 5.089-3.51 8.157c-0.084 3.068 1.011 6.051 3.059 8.337s4.894 3.7 7.953 3.951c3.059 0.252 6.098-0.678 8.492-2.598l4.907 4.907c0.124 0.125 0.271 0.224 0.434 0.292s0.337 0.102 0.513 0.102c0.176 0 0.35-0.035 0.513-0.102s0.31-0.167 0.434-0.292c0.24-0.249 0.375-0.581 0.375-0.927s-0.134-0.678-0.375-0.927zM14.667 24.001c-1.846 0-3.65-0.547-5.185-1.573s-2.731-2.483-3.438-4.189c-0.706-1.705-0.891-3.582-0.531-5.393s1.249-3.474 2.554-4.779c1.305-1.305 2.968-2.194 4.779-2.554s3.687-0.175 5.392 0.531c1.706 0.706 3.163 1.903 4.189 3.438s1.573 3.339 1.573 5.185c0 2.475-0.983 4.849-2.734 6.6s-4.124 2.734-6.6 2.734z"></path>
</symbol>
<symbol id="icon-empty-favorits" viewBox="0 0 39 32">
<path fill="#9bb537" style="fill: var(--color1, #9bb537)" d="M7.696 13.367h24.304v18.633h-24.304v-18.633z"></path>
<path fill="#9bb537" style="fill: var(--color1, #9bb537)" d="M17.418 11.949c0 4.81-3.899 8.709-8.709 8.709s-8.709-3.899-8.709-8.709c0-4.81 3.899-8.709 8.709-8.709s8.709 3.899 8.709 8.709z"></path>
<path fill="#9bb537" style="fill: var(--color1, #9bb537)" d="M28.354 8.709c0 4.81-3.899 8.709-8.709 8.709s-8.709-3.899-8.709-8.709c0-4.81 3.899-8.709 8.709-8.709s8.709 3.899 8.709 8.709z"></path>
<path fill="#9bb537" style="fill: var(--color1, #9bb537)" d="M39.291 11.949c0 4.81-3.899 8.709-8.709 8.709s-8.709-3.899-8.709-8.709c0-4.81 3.899-8.709 8.709-8.709s8.709 3.899 8.709 8.709z"></path>
<path fill="#f8f8f8" style="fill: var(--color2, #f8f8f8)" d="M14.987 10.884c0-0.642 0.453-1.163 1.013-1.163s1.013 0.521 1.013 1.163v5.371c0 0.642-0.453 1.163-1.013 1.163s-1.013-0.521-1.013-1.163v-5.371z"></path>
<path fill="#f8f8f8" style="fill: var(--color2, #f8f8f8)" d="M18.228 10.884c0-0.642 0.635-1.163 1.418-1.163s1.418 0.521 1.418 1.163v5.371c0 0.642-0.635 1.163-1.418 1.163s-1.418-0.521-1.418-1.163v-5.371z"></path>
<path fill="#f8f8f8" style="fill: var(--color2, #f8f8f8)" d="M22.278 10.884c0-0.642 0.453-1.163 1.013-1.163s1.013 0.521 1.013 1.163v5.371c0 0.642-0.453 1.163-1.013 1.163s-1.013-0.521-1.013-1.163v-5.371z"></path>
<path fill="#050505" style="fill: var(--color3, #050505)" d="M29.612 3.29c0.303-0.032 0.611-0.048 0.922-0.048 3.902 0 7.208 2.535 8.34 6.037-0.303 0.031-0.611 0.048-0.922 0.048-3.902 0-7.208-2.535-8.34-6.037z"></path>
</symbol>
<symbol id="icon-burger" viewBox="0 0 31 32">
<path d="M3.439 7.354c-0.359 0.126-0.508 0.389-0.508 0.895 0 0.533 0.157 0.787 0.559 0.902 0.153 0.044 3.308 0.055 12.128 0.044 13.028-0.017 12.090 0.007 12.323-0.306 0.215-0.292 0.224-0.94 0.015-1.25-0.234-0.347 0.802-0.319-12.391-0.33-8.286-0.006-12.020 0.008-12.127 0.046zM3.439 12.527c-0.359 0.126-0.508 0.389-0.508 0.894 0 0.533 0.157 0.787 0.559 0.902 0.153 0.044 3.308 0.055 12.128 0.045 13.028-0.017 12.090 0.007 12.323-0.307 0.215-0.292 0.224-0.94 0.015-1.25-0.234-0.346 0.802-0.319-12.391-0.329-8.286-0.007-12.020 0.008-12.127 0.046zM3.439 17.698c-0.359 0.126-0.508 0.389-0.508 0.894 0 0.534 0.157 0.787 0.559 0.903 0.153 0.044 3.308 0.055 12.128 0.044 13.028-0.017 12.090 0.007 12.323-0.307 0.215-0.292 0.224-0.94 0.015-1.249-0.234-0.347 0.802-0.32-12.391-0.33-8.286-0.006-12.020 0.008-12.127 0.046zM3.439 22.869c-0.359 0.126-0.508 0.389-0.508 0.895 0 0.533 0.157 0.787 0.559 0.902 0.153 0.044 3.308 0.055 12.128 0.044 13.028-0.017 12.090 0.007 12.323-0.306 0.215-0.292 0.224-0.94 0.015-1.25-0.234-0.347 0.802-0.319-12.391-0.33-8.286-0.006-12.020 0.008-12.127 0.046z"></path>
</symbol>
<symbol id="icon-close" viewBox="0 0 32 32">
<path d="M7.501 6.727c-0.322 0.196-0.585 0.461-0.772 0.776l-0.006 0.010c-0.069 0.144-0.109 0.312-0.109 0.49 0 0.179 0.041 0.348 0.114 0.5l-0.003-0.007c0.075 0.149 1.313 1.427 3.745 3.864l3.635 3.64-3.635 3.64c-2.432 2.437-3.671 3.715-3.745 3.864-0.235 0.469-0.113 0.977 0.34 1.431s0.961 0.575 1.431 0.34c0.149-0.075 1.427-1.313 3.864-3.745l3.64-3.635 3.64 3.635c2.437 2.432 3.715 3.671 3.864 3.745 0.469 0.235 0.977 0.113 1.431-0.34s0.575-0.961 0.34-1.431c-0.075-0.149-1.313-1.427-3.745-3.864l-3.635-3.64 3.635-3.64c2.432-2.437 3.671-3.715 3.745-3.864 0.235-0.469 0.113-0.977-0.34-1.431s-0.961-0.575-1.431-0.34c-0.149 0.075-1.427 1.313-3.864 3.745l-3.64 3.635-3.64-3.635c-2.437-2.432-3.715-3.671-3.864-3.745-0.145-0.069-0.316-0.109-0.496-0.109-0.181 0-0.353 0.041-0.506 0.114l0.007-0.003z"></path>
</symbol>
<symbol id="icon-arrow-rigth" viewBox="0 0 32 32">
<path d="M17.867 16.947c0.125-0.124 0.224-0.271 0.292-0.434s0.103-0.337 0.103-0.513c0-0.176-0.035-0.35-0.103-0.513s-0.167-0.31-0.292-0.434l-6.12-6.107c-0.125-0.124-0.224-0.271-0.292-0.434s-0.103-0.337-0.103-0.513c0-0.176 0.035-0.35 0.103-0.513s0.167-0.31 0.292-0.434c0.25-0.248 0.588-0.388 0.94-0.388s0.69 0.139 0.94 0.388l6.12 6.12c0.749 0.75 1.17 1.767 1.17 2.827s-0.421 2.077-1.17 2.827l-6.12 6.12c-0.248 0.246-0.584 0.385-0.933 0.387-0.175 0.001-0.349-0.033-0.512-0.099s-0.31-0.164-0.435-0.288c-0.125-0.124-0.224-0.271-0.292-0.434s-0.103-0.337-0.103-0.513c0-0.176 0.035-0.35 0.103-0.513s0.167-0.31 0.292-0.434l6.12-6.107z"></path>
</symbol>
<symbol id="icon-arrow-left" viewBox="0 0 32 32">
<path d="M14.133 16.947c-0.125-0.124-0.224-0.271-0.292-0.434s-0.103-0.337-0.103-0.513 0.035-0.35 0.103-0.513c0.068-0.163 0.167-0.31 0.292-0.434l6.12-6.107c0.125-0.124 0.224-0.271 0.292-0.434s0.103-0.337 0.103-0.513-0.035-0.35-0.103-0.513c-0.068-0.162-0.167-0.31-0.292-0.434-0.25-0.248-0.588-0.388-0.94-0.388s-0.69 0.139-0.94 0.388l-6.12 6.12c-0.749 0.75-1.17 1.767-1.17 2.827s0.421 2.077 1.17 2.827l6.12 6.12c0.248 0.246 0.583 0.385 0.933 0.387 0.175 0.001 0.349-0.033 0.512-0.099s0.31-0.164 0.435-0.288c0.125-0.124 0.224-0.271 0.292-0.434s0.103-0.337 0.103-0.513-0.035-0.35-0.103-0.513c-0.068-0.163-0.167-0.31-0.292-0.434l-6.12-6.107z"></path>
</symbol>
</defs>
</svg>
