<?xml version="1.0" ?><!DOCTYPE svg  PUBLIC '-//W3C//DTD SVG 1.1//EN'  'http://www.w3.org/Graphics/SVG/1.1/DTD/svg11.dtd'><svg enable-background="new 0 0 91 91" height="91px" id="Layer_1" version="1.1" viewBox="0 0 91 91" width="91px" xml:space="preserve" xmlns="http://www.w3.org/2000/svg" xmlns:xlink="http://www.w3.org/1999/xlink"><g><g><g><path d="M27.371,16.328l-3.116,9.625c-0.142,0.44,0.099,0.913,0.539,1.055c0.086,0.029,0.174,0.041,0.257,0.041     c0.355,0,0.683-0.226,0.797-0.579l3.544-10.954c4.929-1.854,10.421-2.907,16.161-2.907c0.313,0,0.622,0.025,0.933,0.031     L42.85,25.991c-0.121,0.446,0.142,0.907,0.586,1.029c0.074,0.02,0.15,0.029,0.222,0.029c0.37,0,0.707-0.246,0.808-0.616     l3.741-13.738c6.067,0.34,11.797,1.832,16.779,4.209l-3.109,9.033c-0.152,0.438,0.082,0.916,0.518,1.065     c0.093,0.032,0.183,0.046,0.273,0.046c0.347,0,0.673-0.217,0.792-0.564l3.038-8.823c7.208,3.82,12.649,9.548,14.889,16.335H9.715     C12.232,26.365,18.792,20.068,27.371,16.328z" fill="#F9BA8F"/><g><path d="M71.617,69.37l-0.033,1.076c0.004,0.04,0.082,2.458-1.703,4.321c-1.314,1.371-3.25,2.067-5.753,2.067      c-7.175,0-7.516-6.317-7.52-6.381v-0.607c-0.027-0.18-0.419-2.582-3.671-2.582c-2.951,0-3.249,2.559-3.261,2.668l0.004,1.1      c-0.168,1.65-1.503,4.613-5.378,4.613c-4.234,0-5.422-3.064-5.459-4.688v-1.39c0-2.689-2.763-2.826-3.318-2.826H9.426v8.295      c0,2.602,2.115,4.716,4.715,4.716H76.96c2.6,0,4.717-2.114,4.717-4.716v-8.038h-7.133C71.854,66.999,71.625,69.271,71.617,69.37      z" fill="#DEB198"/><path d="M9.426,59.513v5.555h26.06h0.004c0.371,0,1.516,0.045,2.635,0.579c1.093,0.521,2.395,1.626,2.395,3.922      v1.373c0.01,0.288,0.212,3.03,3.783,3.03c3.354,0,3.696-2.904,3.71-3.027l-0.006-1.098c0.153-1.531,1.375-4.259,4.931-4.259      c3.872,0,5.188,2.728,5.342,4.169l0.004,0.665c0.008,0.154,0.302,4.735,5.845,4.735c2.02,0,3.543-0.516,4.53-1.534      c1.295-1.338,1.252-3.154,1.25-3.171l0.037-1.185c0.12-1.394,1.233-3.943,4.599-3.943h7.133v-5.812H9.426z" fill="#FAE58F"/></g><path d="M83.762,50.372H7.343c-2.24,0-4.062-1.82-4.062-4.058c0-2.24,1.822-4.064,4.062-4.064h76.419     c2.238,0,4.06,1.825,4.06,4.064C87.821,48.552,86,50.372,83.762,50.372z" fill="#F16A6D"/></g><g><path d="M82.518,36.964H8.589c-0.708,0-1.374-0.329-1.8-0.892c-0.428-0.561-0.568-1.292-0.379-1.974     C10.369,19.776,26.833,9.378,45.555,9.378c18.72,0,35.181,10.397,39.142,24.721c0.188,0.682,0.048,1.411-0.38,1.974     C83.889,36.635,83.224,36.964,82.518,36.964z M11.783,32.442h67.541C74.59,21.541,60.964,13.901,45.555,13.901     C30.145,13.901,16.513,21.541,11.783,32.442z" fill="#434B56"/><path d="M76.96,82.722H14.144c-4.311,0-7.816-3.506-7.816-7.816v-9.132c0-1.248,1.013-2.26,2.261-2.26h26.899     c3.13,0,6.456,1.854,6.456,5.924v1.373c0.051,0.68,0.502,1.605,2.361,1.605c1.848,0,2.21-1.235,2.28-1.66v-1.039     c0-0.079,0.004-0.155,0.012-0.234c0.226-2.19,2.104-5.449,6.343-5.449c4.885,0,6.556,3.561,6.757,5.441     c0.01,0.081,0.014,0.159,0.014,0.242v0.496c0.068,0.853,0.6,3.391,4.418,3.391c1.629,0,2.812-0.375,3.518-1.112     c0.841-0.876,0.843-2.094,0.843-2.105c-0.002-0.057-0.002-0.113,0-0.169l0.036-1.126c0.002-0.04,0.004-0.081,0.008-0.125     c0.183-2.087,1.936-5.196,6.014-5.196h7.972c1.25,0,2.26,1.014,2.26,2.262v8.874C84.777,79.216,81.271,82.722,76.96,82.722z      M10.85,68.034v6.871c0,1.816,1.478,3.294,3.294,3.294H76.96c1.816,0,3.296-1.478,3.296-3.294v-6.612h-5.71     c-1.219,0-1.46,0.681-1.504,1.021l-0.03,0.989c0.005,0.623-0.095,3.225-2.1,5.319c-1.594,1.661-3.876,2.503-6.784,2.503     c-6.325,0-8.813-4.63-8.939-7.744l-0.002-0.489c-0.106-0.501-0.558-1.338-2.247-1.338c-1.455,0-1.767,0.908-1.832,1.306v1.041     c0,0.078-0.004,0.158-0.012,0.236c-0.211,2.006-1.901,5.802-6.791,5.802c-4.949,0-6.829-3.636-6.883-6.078v-1.424     c0-0.931-0.637-1.403-1.895-1.403H10.85z" fill="#434B56"/><path d="M25.053,28.343c-0.23,0-0.464-0.036-0.695-0.111c-1.188-0.384-1.841-1.66-1.457-2.847l3.677-11.364     c0.383-1.187,1.653-1.842,2.847-1.456c1.188,0.384,1.841,1.659,1.457,2.848l-3.677,11.364     C26.895,27.733,26.009,28.343,25.053,28.343z" fill="#434B56"/><path d="M43.66,28.343c-0.197,0-0.396-0.026-0.595-0.08c-1.206-0.329-1.916-1.571-1.588-2.777l3.932-14.44     c0.329-1.205,1.573-1.917,2.777-1.588c1.206,0.328,1.917,1.571,1.588,2.776L45.84,26.674     C45.566,27.681,44.655,28.343,43.66,28.343z" fill="#434B56"/><path d="M62.67,28.343c-0.244,0-0.492-0.041-0.737-0.125c-1.18-0.406-1.807-1.693-1.401-2.875l3.381-9.819     c0.407-1.182,1.696-1.808,2.875-1.402c1.181,0.406,1.809,1.694,1.402,2.875l-3.381,9.818     C64.486,27.754,63.607,28.343,62.67,28.343z" fill="#434B56"/><path d="M82.518,60.806H8.589c-1.248,0-2.261-1.013-2.261-2.262s1.013-2.262,2.261-2.262h73.929     c1.25,0,2.26,1.013,2.26,2.262S83.768,60.806,82.518,60.806z" fill="#434B56"/><path d="M83.764,53.341H7.343c-3.948,0-7.16-3.209-7.16-7.157c0-3.949,3.211-7.165,7.16-7.165h76.421     c3.946,0,7.158,3.215,7.158,7.165C90.922,50.132,87.71,53.341,83.764,53.341z M7.343,43.543c-1.454,0-2.638,1.184-2.638,2.64     c0,1.453,1.184,2.636,2.638,2.636h76.421c1.455,0,2.637-1.183,2.637-2.636c0-1.456-1.182-2.64-2.637-2.64H7.343z" fill="#434B56"/></g></g></g></svg>